<?xml version="1.0" standalone="no"?>
<!DOCTYPE svg PUBLIC "-//W3C//DTD SVG 20010904//EN"
 "http://www.w3.org/TR/2001/REC-SVG-20010904/DTD/svg10.dtd">
<svg version="1.0" xmlns="http://www.w3.org/2000/svg"
 width="1024.000000pt" height="1024.000000pt" viewBox="0 0 1024.000000 1024.000000"
 preserveAspectRatio="xMidYMid meet">

<g transform="translate(0.000000,1024.000000) scale(0.100000,-0.100000)"
fill="#000000" stroke="none">
<path d="M5102 9524 c-63 -1178 -228 -2047 -468 -2454 -63 -108 -186 -233
-273 -279 l-64 -34 46 -17 c281 -107 492 -450 432 -705 -27 -117 -100 -219
-212 -296 -119 -82 -331 -159 -553 -202 -155 -29 -460 -31 -560 -4 -219 61
-362 199 -393 380 -40 238 150 456 399 457 78 0 200 -36 276 -81 81 -48 185
-142 228 -206 39 -59 39 -36 -1 46 -102 217 -318 392 -564 457 -95 26 -303 26
-395 0 -156 -43 -262 -107 -471 -286 -231 -197 -367 -289 -594 -400 -171 -84
-298 -125 -600 -198 l-40 -10 60 -1 c33 -1 118 -8 190 -16 555 -65 1077 -288
1650 -704 85 -62 189 -142 554 -429 86 -68 165 -128 176 -134 11 -6 -20 31
-69 83 -230 244 -328 435 -297 579 46 213 278 354 607 368 151 6 256 -13 369
-68 284 -136 334 -435 121 -717 -68 -90 -183 -171 -326 -230 -23 -9 -22 -11
38 -42 403 -216 567 -890 682 -2816 27 -443 59 -1028 61 -1085 l1 -45 9 50 c5
28 20 264 34 525 83 1537 166 2260 316 2780 37 126 121 307 183 395 57 79 140
154 219 196 l61 32 -37 13 c-129 45 -271 153 -343 261 -175 264 -112 553 150
681 94 46 168 62 306 69 189 8 357 -32 487 -116 202 -131 247 -322 125 -530
-49 -84 -145 -205 -241 -305 -53 -54 -86 -94 -74 -88 24 13 148 110 399 313
655 527 1127 784 1674 910 130 30 402 68 493 70 l52 1 -45 14 c-25 7 -102 29
-173 48 -293 81 -590 224 -812 392 -49 37 -139 109 -200 159 -161 133 -211
169 -300 213 -141 70 -210 86 -370 87 -119 0 -151 -4 -215 -23 -240 -76 -453
-259 -546 -469 -14 -30 -23 -57 -21 -59 2 -3 17 14 32 37 16 22 61 71 101 108
206 193 480 225 666 79 99 -78 162 -241 140 -362 -27 -142 -120 -258 -265
-330 -124 -61 -179 -71 -382 -71 -157 0 -198 4 -319 28 -171 35 -349 92 -459
148 -104 54 -221 167 -260 251 -76 162 -53 354 62 530 76 116 194 216 313 264
27 10 48 21 48 24 0 3 -24 18 -54 33 -398 208 -636 1070 -725 2630 -10 180
-20 330 -23 332 -2 2 -10 -102 -16 -231z m98 -2434 c35 -89 99 -201 145 -256
l44 -51 -30 -29 c-93 -87 -178 -250 -214 -408 -24 -106 -27 -107 -46 -11 -30
154 -118 327 -208 408 l-42 38 47 52 c25 28 59 74 75 102 40 70 103 235 124
325 9 41 19 82 22 90 2 8 17 -34 33 -95 15 -60 38 -135 50 -165z m-5 -2450
c34 -81 79 -150 140 -218 l48 -53 -35 -37 c-100 -107 -166 -235 -201 -390 -21
-93 -37 -122 -37 -67 0 39 -52 199 -87 270 -38 77 -87 144 -139 190 l-34 30
65 68 c82 86 145 211 182 360 l27 108 22 -98 c12 -54 34 -127 49 -163z"/>
</g>
</svg>
